# xmcd
#
# Track frame offsets:
#	150
#	8170
#	18848
#	31802
#	52136
#	65231
#	78580
#	93032
#	106195
#	127401
#	140993
#	157904
#	167489
#	178224
#	188468
#	201075
#	218459
#
# Disc length: 3187 seconds
#
# Revision: 0
# Processed by: cddbd v1.4PL0 Copyright (c) Steve Scherf et al.
# Submitted via: dBpowerAMP V4.0
#
DISCID=e40c7111
DTITLE=John Mayall - Steppin' Out - An Introduction to John Mayall
DYEAR=1968
DGENRE=Blues
TTITLE0=Stand Back Baby
TTITLE1=She's Too Young
TTITLE2=Mess Around
TTITLE3=I Can't Quit You Babe
TTITLE4=Hartley Quits
TTITLE5=Sitting In The Rain
TTITLE6=Don't Waste My Time
TTITLE7=The Supernatural
TTITLE8=The Bear
TTITLE9=Some Day After A While (You'll Be Sorry)
TTITLE10=Change Your Ways
TTITLE11=Key To Love
TTITLE12=Parchman Farm
TTITLE13=Hit The Highway
TTITLE14=Suspicious (Part One)
TTITLE15=Checkin' Up On My Baby
TTITLE16=Laurel Canyon Home
EXTD=A little tribute to them fantastic CDDBs but not the least... John Mayall is a must-have 4 all the Blues lovers.
EXTT0=
EXTT1=
EXTT2=
EXTT3=
EXTT4=
EXTT5=
EXTT6=
EXTT7=
EXTT8=
EXTT9=
EXTT10=
EXTT11=
EXTT12=
EXTT13=
EXTT14=
EXTT15=
EXTT16=
PLAYORDER=
